<svg xmlns="http://www.w3.org/2000/svg" viewBox="0 0 64 64" role="img" aria-label="LOOKBOX">
  <rect width="64" height="64" rx="16" fill="#EFEDE8"/>
  <rect x="10" y="18" width="44" height="28" rx="8" fill="#1A1A1A"/>
  <path fill="#FFFFFF" d="M18 26h6.6c3.6 0 5.8 1.6 5.8 4.2 0 1.6-.8 2.8-2.2 3.4 1.8.6 2.8 1.9 2.8 3.9 0 3-2.4 4.9-6.4 4.9H18V26Zm6.2 6.5c1.5 0 2.3-.6 2.3-1.7s-.8-1.7-2.3-1.7h-2.5v3.4h2.5Zm.3 6.7c1.8 0 2.7-.7 2.7-1.9 0-1.3-.9-1.9-2.7-1.9h-2.8v3.8h2.8ZM33.2 34.2c0-5.1 3.3-8.5 8.1-8.5s8.1 3.4 8.1 8.5-3.3 8.6-8.1 8.6-8.1-3.5-8.1-8.6Zm12.4 0c0-3-1.7-5-4.3-5s-4.3 2-4.3 5 1.7 5.1 4.3 5.1 4.3-2.1 4.3-5.1Z"/>
</svg>
